<?xml version="1.0" encoding="iso-8859-1"?>
<!-- Generator: Adobe Illustrator 19.0.0, SVG Export Plug-In . SVG Version: 6.00 Build 0)  -->
<svg version="1.1" id="Layer_1" xmlns="http://www.w3.org/2000/svg" xmlns:xlink="http://www.w3.org/1999/xlink" x="0px" y="0px"
	 viewBox="0 0 392.598 392.598" style="enable-background:new 0 0 392.598 392.598;" xml:space="preserve">
<rect x="46.384" y="21.786" style="fill:#56ACE0;" width="132.655" height="348.962"/>
<path style="fill:#194F82;" d="M189.963,0H35.523c-6.012,0-10.925,4.848-10.925,10.925v370.747c0,6.012,4.848,10.925,10.925,10.925
	h154.44c6.012,0,10.925-4.848,10.925-10.925V10.861C200.889,4.848,195.975,0,189.963,0z M179.038,370.747H46.384V21.786h132.655
	V370.747z"/>
<g>
	<rect x="87.563" y="62.966" style="fill:#FFFFFF;" width="50.295" height="125.156"/>
	<path style="fill:#FFFFFF;" d="M112.711,279.273c-13.834,0-25.083,11.313-25.083,25.083c0,13.834,11.313,25.083,25.083,25.083
		s25.083-11.313,25.083-25.083C137.794,290.521,126.61,279.273,112.711,279.273z"/>
</g>
<g>
	<path style="fill:#194F82;" d="M148.784,41.18H76.703c-6.012,0-10.925,4.848-10.925,10.925v146.941
		c0,6.012,4.848,10.925,10.925,10.925h72.081c6.012,0,10.925-4.848,10.925-10.925V52.105
		C159.644,46.028,154.796,41.18,148.784,41.18z M137.794,188.121H87.499V62.966h50.295V188.121z"/>
	<path style="fill:#194F82;" d="M112.711,257.487c-25.859,0-46.998,21.075-46.998,46.998s21.075,46.998,46.998,46.998
		s46.998-21.075,46.998-46.998S138.569,257.487,112.711,257.487z M112.711,329.568c-13.834,0-25.083-11.313-25.083-25.083
		s11.313-25.083,25.083-25.083s25.083,11.313,25.083,25.083S126.61,329.568,112.711,329.568z"/>
</g>
<rect x="244.46" y="112.356" style="fill:#FFC10D;" width="101.754" height="258.392"/>
<path style="fill:#194F82;" d="M357.074,90.57H233.535c-6.012,0-10.925,4.848-10.925,10.925v280.178
	c0,6.012,4.848,10.925,10.925,10.925h123.539c6.012,0,10.925-4.848,10.925-10.925V101.43
	C368.064,95.418,363.151,90.57,357.074,90.57z M346.214,370.747H244.46V112.356h101.754V370.747z"/>
<g>
	<rect x="285.64" y="153.535" style="fill:#FFFFFF;" width="19.394" height="77.64"/>
	<path style="fill:#FFFFFF;" d="M295.337,310.174c-5.301,0-9.632,4.331-9.632,9.632c0,5.301,4.331,9.632,9.632,9.632
		s9.632-4.331,9.632-9.632C305.034,314.505,300.703,310.174,295.337,310.174z"/>
</g>
<g>
	<path style="fill:#194F82;" d="M315.895,131.749h-41.18c-6.012,0-10.925,4.848-10.925,10.925v99.426
		c0,6.012,4.848,10.925,10.925,10.925h41.18c6.012,0,10.925-4.848,10.925-10.925V142.61
		C326.82,136.598,321.971,131.749,315.895,131.749z M305.034,231.176H285.64v-77.64h19.394V231.176z"/>
	<path style="fill:#194F82;" d="M295.337,288.388c-17.39,0-31.547,14.158-31.547,31.547c0,17.39,14.158,31.547,31.547,31.547
		s31.547-14.158,31.547-31.547C326.82,302.416,312.727,288.388,295.337,288.388z M295.337,329.568c-5.301,0-9.632-4.331-9.632-9.632
		c0-5.301,4.331-9.632,9.632-9.632s9.632,4.331,9.632,9.632C304.969,325.236,300.703,329.568,295.337,329.568z"/>
</g>
<g>
</g>
<g>
</g>
<g>
</g>
<g>
</g>
<g>
</g>
<g>
</g>
<g>
</g>
<g>
</g>
<g>
</g>
<g>
</g>
<g>
</g>
<g>
</g>
<g>
</g>
<g>
</g>
<g>
</g>
</svg>
