<?xml version="1.0" encoding="iso-8859-1"?>
<!-- Generator: Adobe Illustrator 19.0.0, SVG Export Plug-In . SVG Version: 6.00 Build 0)  -->
<svg version="1.1" id="Layer_1" xmlns="http://www.w3.org/2000/svg" xmlns:xlink="http://www.w3.org/1999/xlink" x="0px" y="0px"
	 viewBox="0 0 392.663 392.663" style="enable-background:new 0 0 392.663 392.663;" xml:space="preserve">
<path style="fill:#FFFFFF;" d="M196.396,190.125c24.566,0,44.606,20.04,44.606,44.606v43.83h55.467V21.851H96.323v256.711h55.467
	v-43.83C151.79,210.166,171.83,190.125,196.396,190.125z"/>
<polyline style="fill:#56ACE0;" points="118.109,256.776 118.109,43.636 274.683,43.636 274.683,256.776 "/>
<g>
	<path style="fill:#194F82;" d="M146.683,57.083h-8.339c-6.012,0-10.925,4.848-10.925,10.925c0,6.012,4.848,10.925,10.925,10.925
		h8.339c6.012,0,10.925-4.848,10.925-10.925C157.608,61.931,152.76,57.083,146.683,57.083z"/>
	<path style="fill:#194F82;" d="M192.194,78.869h8.339c6.012,0,10.925-4.848,10.925-10.925c0-6.012-4.848-10.925-10.925-10.925
		h-8.339c-6.012,0-10.925,4.848-10.925,10.925C181.333,74.02,186.182,78.869,192.194,78.869z"/>
	<path style="fill:#194F82;" d="M246.109,78.869h8.339c6.012,0,10.925-4.848,10.925-10.925c0-6.012-4.848-10.925-10.925-10.925
		h-8.339c-6.012,0-10.925,4.848-10.925,10.925S240.032,78.869,246.109,78.869z"/>
	<path style="fill:#194F82;" d="M146.683,95.935h-8.339c-6.012,0-10.925,4.848-10.925,10.925c0,6.012,4.848,10.925,10.925,10.925
		h8.339c6.012,0,10.925-4.848,10.925-10.925C157.608,100.848,152.76,95.935,146.683,95.935z"/>
	<path style="fill:#194F82;" d="M192.194,117.721h8.339c6.012,0,10.925-4.848,10.925-10.925c0-6.012-4.848-10.925-10.925-10.925
		h-8.339c-6.012,0-10.925,4.848-10.925,10.925C181.333,112.873,186.182,117.721,192.194,117.721z"/>
	<path style="fill:#194F82;" d="M246.109,117.721h8.339c6.012,0,10.925-4.848,10.925-10.925c0-6.012-4.848-10.925-10.925-10.925
		h-8.339c-6.012,0-10.925,4.848-10.925,10.925C235.184,112.873,240.032,117.721,246.109,117.721z"/>
	<path style="fill:#194F82;" d="M146.683,134.853h-8.339c-6.012,0-10.925,4.848-10.925,10.925s4.848,10.925,10.925,10.925h8.339
		c6.012,0,10.925-4.848,10.925-10.925S152.76,134.853,146.683,134.853z"/>
	<path style="fill:#194F82;" d="M211.459,145.713c0-6.012-4.848-10.925-10.925-10.925h-8.339c-6.012,0-10.925,4.848-10.925,10.925
		c0,6.077,4.848,10.925,10.925,10.925h8.339C206.61,156.638,211.459,151.725,211.459,145.713z"/>
	<path style="fill:#194F82;" d="M246.109,156.638h8.339c6.012,0,10.925-4.848,10.925-10.925c0-6.077-4.848-10.925-10.925-10.925
		h-8.339c-6.012,0-10.925,4.848-10.925,10.925C235.184,151.79,240.032,156.638,246.109,156.638z"/>
	<path style="fill:#194F82;" d="M146.683,173.64h-8.339c-6.012,0-10.925,4.848-10.925,10.925c0,6.012,4.848,10.925,10.925,10.925
		h8.339c6.012,0,10.925-4.848,10.925-10.925C157.608,178.554,152.76,173.64,146.683,173.64z"/>
	<path style="fill:#194F82;" d="M246.109,195.491h8.339c6.012,0,10.925-4.848,10.925-10.925c0-6.012-4.848-10.925-10.925-10.925
		h-8.339c-6.012,0-10.925,4.848-10.925,10.925C235.184,190.513,240.032,195.491,246.109,195.491z"/>
	<path style="fill:#194F82;" d="M381.802,345.083H231.37c-3.556-11.442-12.671-20.493-24.113-24.113v-20.622h100.073
		c6.012,0,10.925-4.848,10.925-10.925V10.925C318.255,4.913,313.406,0,307.329,0H85.463c-6.012,0-10.925,4.848-10.925,10.925
		v278.497c0,6.012,4.848,10.925,10.925,10.925h100.073v20.622c-11.442,3.556-20.493,12.606-24.113,24.113H10.99
		c-6.012,0-10.925,4.848-10.925,10.925s4.848,10.925,10.925,10.925h150.368c4.655,14.933,18.554,25.729,34.974,25.729
		s30.384-10.796,34.974-25.729h150.368c6.012,0,10.925-4.848,10.925-10.925S387.814,345.083,381.802,345.083z M151.79,234.731v43.83
		H96.323V21.851h200.145v256.711h-55.467v-43.83c0-24.566-20.04-44.606-44.606-44.606S151.79,210.166,151.79,234.731z
		 M173.576,278.562v-43.83c0-12.606,10.214-22.82,22.82-22.82s22.82,10.214,22.82,22.82v43.83H173.576z M196.396,370.812
		c-8.21,0-14.804-6.659-14.804-14.869s6.659-14.869,14.804-14.869c8.21,0,14.869,6.659,14.869,14.869
		S204.606,370.812,196.396,370.812z"/>
</g>
<g>
	<path style="fill:#FFC10D;" d="M219.216,234.731c0-12.606-10.214-22.82-22.82-22.82s-22.82,10.214-22.82,22.82v43.83h45.576v-43.83
		H219.216z"/>
	<path style="fill:#FFC10D;" d="M196.396,370.812c8.21,0,14.869-6.659,14.869-14.869s-6.659-14.869-14.869-14.869
		c-8.21,0-14.804,6.659-14.804,14.869S188.186,370.812,196.396,370.812z"/>
</g>
<g>
</g>
<g>
</g>
<g>
</g>
<g>
</g>
<g>
</g>
<g>
</g>
<g>
</g>
<g>
</g>
<g>
</g>
<g>
</g>
<g>
</g>
<g>
</g>
<g>
</g>
<g>
</g>
<g>
</g>
</svg>
