<?xml version="1.0" encoding="iso-8859-1"?>
<!-- Generator: Adobe Illustrator 19.0.0, SVG Export Plug-In . SVG Version: 6.00 Build 0)  -->
<svg version="1.1" id="Layer_1" xmlns="http://www.w3.org/2000/svg" xmlns:xlink="http://www.w3.org/1999/xlink" x="0px" y="0px"
	 viewBox="0 0 392.533 392.533" style="enable-background:new 0 0 392.533 392.533;" xml:space="preserve">
<path style="fill:#FFFFFF;" d="M78.804,187.936c0,5.947-4.784,10.796-10.731,10.925c-25.471,0.453-46.287,21.527-46.287,47.063
	c0,25.988,21.204,47.127,47.127,47.127h260.59c22.691,0,41.244-18.554,41.244-41.244c0-20.493-15.321-38.012-35.62-40.792
	c-5.042-0.711-8.986-4.784-9.438-9.891c-1.228-14.675-12.735-26.57-27.41-28.38c-9.374-1.099-18.554,2.004-25.341,8.469
	c-7.046,6.4-17.261,1.875-18.295-6.271c-4.848-33.099-27.604-59.345-57.083-70.141v37.689c0,6.012-4.848,10.925-10.925,10.925
	s-10.925-4.848-10.925-10.925V99.823c-6.723-0.646-13.188-0.646-19.394,0.323v21.721c0,6.012-4.848,10.925-10.925,10.925
	s-10.925-4.848-10.925-10.925v-16.291C101.43,118.635,78.739,150.635,78.804,187.936z"/>
<path style="fill:#56ACE0;" d="M332.089,232.671L332.089,232.671c-15.192-2.069-26.893-14.416-28.186-29.673l0,0
	c-0.323-3.814-3.232-7.887-8.275-8.469c-0.388-0.065-0.776-0.065-1.164-0.065c-3.232,0-5.495,1.616-6.465,2.651l-3.749,3.62
	c-17.584,16.873-46.869,6.853-50.424-17.261l-0.776-5.172c-4.719-32.453-32.97-56.954-65.681-56.954
	c-2.069,0-4.073,0.129-6.206,0.323c-34.651,3.168-60.638,31.677-60.574,66.392l0,0c0.065,17.842-14.287,32.453-32.129,32.776l0,0
	c-13.77,0.259-24.889,11.572-24.889,25.277c0,13.964,11.378,25.341,25.341,25.341v0.065h260.073c10.02,0,18.683-7.434,19.782-17.39
	C349.867,243.467,342.368,234.093,332.089,232.671z"/>
<path style="fill:#194F82;" d="M346.117,191.039c-5.236-21.01-23.079-37.236-45.188-39.887c-9.826-1.164-19.523,0.388-28.251,4.396
	c-14.998-49.131-62.772-82.295-115.394-77.446c-53.98,4.913-95.224,47.063-99.879,99.943C24.954,183.605,0,212.114,0,245.988
	c0,38.012,30.901,68.913,68.913,68.913h260.59c34.78,0,63.03-28.251,63.03-63.03C392.533,223.233,373.075,198.409,346.117,191.039z
	 M175.709,99.887v42.667c0,6.012,4.848,10.925,10.925,10.925c6.077,0,10.925-4.848,10.925-10.925v-37.689
	c29.543,10.796,52.234,37.107,57.083,70.141c1.099,8.145,11.313,12.735,18.295,6.271c6.788-6.465,15.968-9.568,25.341-8.469
	c14.61,1.745,26.182,13.705,27.41,28.38c0.453,5.107,4.331,9.18,9.438,9.891c20.299,2.78,35.62,20.299,35.62,40.792
	c0,22.691-18.554,41.244-41.244,41.244H68.913c-25.988,0-47.127-21.204-47.127-47.127c0-25.471,20.816-46.675,46.287-47.063
	c5.947-0.065,10.731-4.913,10.731-10.925c-0.065-37.301,22.626-69.301,55.725-82.295v16.291c0,6.012,4.848,10.925,10.925,10.925
	s10.925-4.848,10.925-10.925v-21.721C162.521,99.306,168.986,99.241,175.709,99.887z"/>
<g>
</g>
<g>
</g>
<g>
</g>
<g>
</g>
<g>
</g>
<g>
</g>
<g>
</g>
<g>
</g>
<g>
</g>
<g>
</g>
<g>
</g>
<g>
</g>
<g>
</g>
<g>
</g>
<g>
</g>
</svg>
