<?xml version="1.0" encoding="iso-8859-1"?>
<!-- Generator: Adobe Illustrator 19.0.0, SVG Export Plug-In . SVG Version: 6.00 Build 0)  -->
<svg version="1.1" id="Layer_1" xmlns="http://www.w3.org/2000/svg" xmlns:xlink="http://www.w3.org/1999/xlink" x="0px" y="0px"
	 viewBox="0 0 392.663 392.663" style="enable-background:new 0 0 392.663 392.663;" xml:space="preserve">
<rect x="39.176" y="262.271" style="fill:#FFC10D;" width="97.81" height="63.547"/>
<polygon style="fill:#FFFFFF;" points="140.412,347.539 35.75,347.539 26.764,370.812 149.269,370.812 "/>
<rect x="255.677" y="262.271" style="fill:#56ACE0;" width="97.81" height="63.547"/>
<polygon style="fill:#FFFFFF;" points="356.913,347.539 252.251,347.539 243.394,370.812 365.899,370.812 "/>
<rect x="147.394" y="21.851" style="fill:#FFC10D;" width="97.81" height="63.547"/>
<polygon style="fill:#FFFFFF;" points="144.033,107.184 135.111,130.392 257.552,130.392 248.63,107.184 "/>
<path style="fill:#194F82;" d="M391.887,377.794l-16.614-43.119v-83.329c0-6.012-4.848-10.925-10.925-10.925H315.41v-44.089
	c0-6.012-4.848-10.925-10.925-10.925h-97.228v-33.228h66.198c7.628,0,12.929-7.628,10.214-14.869L267.119,94.19V10.925
	C267.119,4.913,262.271,0,256.194,0H136.534c-6.012,0-10.925,4.848-10.925,10.925v83.329l-16.549,43.119
	c-2.715,7.111,2.521,14.869,10.214,14.869h66.198v33.228H88.178c-6.012,0-10.925,4.848-10.925,10.925v44.154H28.251
	c-6.012,0-10.925,4.848-10.925,10.925v83.2L0.776,377.794c-2.715,7.111,2.521,14.869,10.214,14.869h154.182
	c7.628,0,12.929-7.628,10.214-14.869l-16.614-43.119v-83.329c0-6.012-4.848-10.925-10.925-10.925H98.909v-33.228h194.715v33.228
	h-48.937c-6.012,0-10.925,4.848-10.925,10.925v83.329l-16.549,43.119c-2.715,7.111,2.521,14.869,10.214,14.869h154.182
	C389.366,392.598,394.602,384.97,391.887,377.794z M147.394,21.851h97.81v63.547h-97.81V21.851z M144.033,107.184h104.598
	l8.857,23.273H135.111L144.033,107.184z M26.764,370.812l8.857-23.273h104.598l8.857,23.273H26.764z M136.986,325.754h-97.81
	v-63.483h97.81C136.986,262.271,136.986,325.754,136.986,325.754z M353.487,262.271v63.547h-97.81v-63.547H353.487z
	 M243.394,370.812l8.857-23.273h104.598l8.857,23.273H243.394z"/>
<g>
</g>
<g>
</g>
<g>
</g>
<g>
</g>
<g>
</g>
<g>
</g>
<g>
</g>
<g>
</g>
<g>
</g>
<g>
</g>
<g>
</g>
<g>
</g>
<g>
</g>
<g>
</g>
<g>
</g>
</svg>
