<svg xmlns="http://www.w3.org/2000/svg" xmlns:xlink="http://www.w3.org/1999/xlink" xmlns:fi="http://pattern.flaticon.com/" x="0" y="0" width="700" height="350" viewBox="0 0 700 350"><rect x="0px" y="0px" width="100%" height="100%" opacity="0" fill="#ffffff"/><defs><g transform="matrix(0.14011997189220743 0.02458245041595465 -0.02458245041595465 0.14011997189220743 101.91055778212544 70.54558522290026)" id="L1_78"><path d="M289.871,397.982c-3.151,3.151-9.846,3.938-14.178-0.394c-39.778-40.566-97.674-34.265-125.637-5.908  c-18.511,18.905-28.751,49.231-42.142,67.742c-7.089,10.24-16.148,20.48-25.994,30.326c0,0-11.815,13.391-33.477,13.391  C21.662,503.138,0,481.477,0,454.695c0-20.874,13.391-33.477,13.391-33.477l0.394-0.394l0.394-0.394  c9.452-9.452,19.298-18.117,29.145-25.206c18.511-13.391,48.443-23.631,66.954-42.535c27.963-28.357,34.265-86.646-5.514-126.818  c-1.969-1.969-3.151-5.12-2.757-7.483c0-2.757,1.575-5.514,3.151-7.089l50.806-51.2l184.32,186.289  C340.283,346.388,289.871,397.982,289.871,397.982z" fill="#415661"/><path d="M105.551,211.298c-1.575,1.575-2.757,4.332-3.151,7.089c0,2.757,0.788,5.514,2.757,7.483  c39.778,40.172,33.871,98.462,5.514,126.818c-18.511,18.905-48.837,29.145-66.954,42.535c-9.846,7.089-19.692,15.754-29.145,25.206  l-0.394,0.394l-0.394,0.394c4.726-4.726-13.391,10.24-13.391,33.477c0,13.391,5.514,25.206,14.178,34.265l230.006-229.612  l-76.406-87.434l-11.815-11.815C156.357,160.098,105.551,211.298,105.551,211.298z" fill="#3a4d57"/><path d="M330.437,4.923l168.566,168.172c5.514,5.514,5.514,14.178,0,19.692L389.908,301.883  c-5.514,5.514-14.178,5.514-19.692,0l-168.96-168.172c-5.514-5.514-5.514-14.178,0-19.692L310.745,4.923  C315.865-0.591,324.923-0.591,330.437,4.923z" fill="#f4f0d3"/><path d="M200.468,115.2l197.317,178.412l-72.074,68.135L132.726,183.729L200.468,115.2z" fill="#d3d5d6"/><path d="M200.468,115.2l99.643,89.797L230.4,273.92l-97.674-89.797  C132.726,184.123,200.468,115.2,200.468,115.2z" fill="#c8cacb"/><path d="M278.055,259.348c-6.302,6.302-6.302,16.148,0,22.449c6.302,6.302,16.148,6.302,22.449,0  c6.302-6.302,6.302-16.148,0-22.449C294.597,253.44,284.357,253.44,278.055,259.348z M336.345,294.794  c-6.302-6.302-16.148-6.302-22.449,0c-6.302,6.302-6.302,16.148,0,22.449c6.302,6.302,16.148,6.302,22.449,0  C342.252,310.942,342.252,301.095,336.345,294.794z" fill="#bdbfc0"/><path d="M484.825,158.917c-2.757-2.757-7.089-2.757-9.846,0l-85.071,84.677c-2.757,2.757-2.757,7.089,0,9.846  c2.757,2.757,7.089,2.757,9.846,0l85.071-84.677C487.582,166.006,487.582,161.674,484.825,158.917z M461.194,135.286  c-2.757-2.757-7.089-2.757-9.846,0l-85.071,84.677c-2.757,2.757-2.757,7.089,0,9.846c2.757,2.757,7.089,2.757,9.846,0l85.071-84.677  C463.951,142.375,463.951,138.043,461.194,135.286z M413.538,88.025c-2.757-2.757-7.089-2.757-9.846,0l-85.071,84.283  c-2.757,2.757-2.757,7.089,0,9.846c2.757,2.757,7.089,2.757,9.846,0l85.071-84.283C416.295,95.114,416.295,90.782,413.538,88.025z   M389.908,64.394c-2.757-2.757-7.089-2.757-9.846,0l-85.071,84.283c-2.757,2.757-2.757,7.089,0,9.846  c2.757,2.757,7.089,2.757,9.846,0l85.071-84.283C392.665,71.483,392.665,67.151,389.908,64.394z M365.883,40.369  c-2.757-2.757-7.089-2.757-9.846,0l-84.677,84.677c-2.757,2.757-2.757,7.089,0,9.846c2.757,2.757,7.089,2.757,9.846,0l84.677-84.283  C368.64,47.852,368.64,43.126,365.883,40.369z M342.252,16.738c-2.757-2.757-7.089-2.757-9.846,0l-85.071,84.677  c-2.757,2.757-2.757,7.089,0,9.846s7.089,2.757,9.846,0l85.071-84.677C345.009,23.828,345.009,19.495,342.252,16.738z" fill="#e8e4c8"/><path d="M499.397,172.702L330.437,4.529c-5.514-5.514-14.178-5.514-19.692,0l-12.209,12.209l74.831,74.043  c5.908,11.028,4.332,24.812-6.302,34.265l-9.452,11.028c-6.302,5.514-6.302,14.966,0,20.48s16.935,5.12,22.055-0.788l-29.145,28.357  c-5.908,5.514-5.908,14.572,0,20.086s14.966,5.514,20.874,0l13.391-13.391c-5.514,5.514-5.514,14.572,0,20.086  c5.514,5.514,14.178,5.514,19.692,0l24.418-25.6c11.028-11.422,29.145-11.422,40.566,0l18.511,18.117L499.397,192  C504.911,187.274,504.911,178.215,499.397,172.702L499.397,172.702z" fill="#e2574c"/><path d="M205.588,164.825c6.302,6.302,6.302,16.148,0,22.449c-6.302,6.302-16.148,6.302-22.449,0  c-6.302-6.302-6.302-16.148,0-22.449C189.44,158.523,199.286,158.523,205.588,164.825z M241.034,200.271  c6.302,6.302,6.302,16.148,0,22.449c-6.302,6.302-16.148,6.302-22.449,0c-6.302-6.302-6.302-16.148,0-22.449  C224.886,193.969,235.126,193.969,241.034,200.271z" fill="#b4b5b6"/><path d="M367.458,124.652l-9.452,11.028c-6.302,5.514-6.302,14.572,0,20.48  c5.908,5.12,15.36,5.12,20.874,0.394l9.058-8.665c-5.514,5.514-15.754,6.302-22.055,0.788c-6.302-5.514-6.302-14.572,0-20.48  l9.452-11.028c10.24-9.058,11.815-23.237,6.302-33.871L306.806,9.649l-7.877,7.877l74.831,73.649  C379.274,101.809,377.699,115.594,367.458,124.652z M358.794,196.332c-5.514-5.12-5.514-13.785-0.788-19.298l-7.089,6.695  c-5.908,5.514-5.908,14.572,0,20.086s14.966,5.514,20.874,0l7.877-7.877C373.76,201.846,364.702,201.846,358.794,196.332z   M392.665,203.422c-5.514-5.514-5.514-14.572,0-20.086l-7.877,7.877c-5.514,5.514-5.514,14.572,0,20.086s14.178,5.514,19.692,0  l6.302-6.302C405.268,208.935,397.785,208.148,392.665,203.422z M495.458,195.938l-18.511-17.723  c-11.028-11.422-29.145-11.422-40.172,0l-5.514,5.514c11.028-9.058,27.569-8.271,37.809,1.969l18.511,17.723L499.003,192  L495.458,195.938z" fill="#d65348"/></g><g transform="matrix(0.060395259644750156 0.01811857710240715 -0.01811857710240715 0.060395259644750156 117.3195392181016 17.21771171773509)" id="L1_79"><path d="M41.493,281.6l45.686-79.951c4.726-8.271,15.36-11.028,23.631-6.302l337.132,196.529  c8.271,4.726,11.028,15.36,6.302,23.631l-45.686,79.951c-4.726,8.271-15.36,11.028-23.631,6.302L47.794,305.231  C39.523,300.505,36.767,289.871,41.493,281.6z" fill="#bf392b"/><path d="M87.573,203.225l-0.788-0.788l-9.058,16.148l258.757,230.794  C336.483,449.378,87.573,203.225,87.573,203.225z" fill="#ac3327"/><path d="M408.557,495.458l45.686-79.951c4.726-8.271,1.969-18.905-6.302-23.631L341.21,329.649  l-66.56,107.914l110.277,64.197C393.197,506.486,403.831,503.729,408.557,495.458z" fill="#d6d6d6"/><path d="M293.554,406.843l-1.969,2.757l44.505,39.778L293.554,406.843z" fill="#cacaca"/><path d="M87.573,179.2l64.591-64.197c6.695-6.695,17.723-6.695,24.418,0l274.905,272.148  c6.695,6.695,6.695,17.329,0,24.025l-64.591,64.197c-6.695,6.695-17.723,6.695-24.418,0L87.573,203.225  C80.877,196.529,80.877,185.895,87.573,179.2z" fill="#e2574c"/><path d="M147.831,119.335l-14.966,14.572l173.292,259.938C306.157,393.846,147.831,119.335,147.831,119.335z" fill="#cb4e44"/><path d="M451.486,411.175c6.695-6.695,6.695-17.329,0-24.025l-93.342-92.16l-89.797,87.04l94.129,93.342  c6.695,6.695,17.723,6.695,24.418,0C386.896,475.372,451.486,411.175,451.486,411.175z" fill="#e0e0e0"/><path d="M154.133,95.705l79.951-46.08c8.271-4.726,18.905-1.969,23.631,6.302L453.85,396.209  c4.726,8.271,1.969,18.905-6.302,23.631l-79.951,46.08c-8.271,4.726-18.905,1.969-23.631-6.302L147.831,119.335  C143.105,111.065,145.862,100.431,154.133,95.705z" fill="#d07c40"/><path d="M288.04,362.732l-1.575,1.575l19.692,29.538L288.04,362.732z" fill="#d1d1d1"/><path d="M367.991,466.314l79.951-46.08c8.271-4.726,11.028-15.36,6.302-23.631l-68.529-118.942  l-108.308,66.954l66.56,115.397C349.087,468.283,359.72,471.04,367.991,466.314z" fill="#ebebeb"/><path d="M240.779,56.714c-0.788-3.151-0.788-6.302,0-9.452c-2.363,0.394-4.332,1.182-6.695,2.363  l-16.148,9.452L329,382.031L240.779,56.714z M367.203,439.532h0.788v-0.394L367.203,439.532z" fill="#bb6f39"/><path d="M367.203,439.532h0.788v-0.394L367.203,439.532z M312.853,322.56l-3.545,2.363L329,382.031  L312.853,322.56z" fill="#dbdbdb"/><path d="M252.594,35.84l89.009-23.631c9.058-2.363,18.511,2.757,21.268,11.815L464.09,395.815  c2.363,9.058-3.151,18.511-12.209,20.874l-89.009,23.631c-9.058,2.363-18.511-2.757-21.268-11.815L240.779,56.714  C238.022,47.655,243.536,38.203,252.594,35.84z" fill="#f4b459"/><path d="M362.871,0h81.526c11.422,0,20.48,9.058,20.48,20.48v384.394c0,11.422-9.058,20.48-20.48,20.48  h-81.526c-11.422,0-20.48-9.058-20.48-20.48V20.48C342.391,9.058,351.45,0,362.871,0z" fill="#efc75e"/><path d="M308.52,306.806l33.083,121.698c2.363,9.058,11.815,14.572,21.268,11.815l89.009-23.631  c9.059-2.363,14.572-11.815,12.209-20.874l-33.083-120.123L308.52,306.806z" fill="#e6e6e6"/><path d="M342.391,20.48c0-3.151,0.788-5.908,1.969-8.271c-0.788,0-1.969,0-2.757,0.394l-20.874,5.514  l21.662,313.895V20.48z" fill="#dba250"/><path d="M342.391,275.298v129.575c0,11.422,9.058,20.48,20.48,20.48h81.526c11.422,0,20.48-9.058,20.48-20.48  V275.298H342.391z" fill="#efefef"/><path d="M342.391,298.142l-2.363,0.788l2.363,33.083V298.142z" fill="#dddddd"/><path d="M362.083,295.385v19.692h66.954v-19.692H362.083z M362.083,397.785h27.569V385.97h-27.569V397.785z   M362.083,370.215h27.569V358.4h-27.569V370.215z M362.083,342.646h27.569v-11.815h-27.569V342.646z M431.007,378.092  c5.514,0,9.846,4.332,9.846,9.846s-4.332,9.846-9.846,9.846s-9.846-4.332-9.846-9.846  C421.16,382.425,425.493,378.092,431.007,378.092z" fill="#bfbfbf"/></g><g transform="matrix(0.0554882370277226 0.005548823786962595 -0.005548823786962595 0.0554882370277226 113.215484120496 178.37451522549554)" id="L1_80"><path d="M501.215,340.577H106.146c-4.702,0-8.514,3.812-8.514,8.514v136.231c0,4.702,3.812,8.514,8.514,8.514  h395.069c4.702,0,8.514-3.812,8.514-8.514V349.091C509.729,344.389,505.917,340.577,501.215,340.577z" fill="#4acfd9"/><path d="M237.836,340.577h-131.69c-4.702,0-8.514,3.812-8.514,8.514v136.231c0,4.702,3.812,8.514,8.514,8.514  h131.69c4.702,0,8.514-3.812,8.514-8.514V349.091C246.35,344.389,242.538,340.577,237.836,340.577z" fill="#365558"/><path d="M369.525,340.577h-131.69c-4.702,0-8.514,3.812-8.514,8.514v136.231c0,4.702,3.812,8.514,8.514,8.514  h131.69c4.702,0,8.514-3.812,8.514-8.514V349.091C378.04,344.389,374.228,340.577,369.525,340.577z" fill="#0295aa"/><path d="M435.697,170.362l-96.33-96.33c-1.596-1.597-3.762-2.494-6.02-2.494c-2.258,0-4.424,0.897-6.02,2.494  L47.971,353.388c-3.325,3.325-3.325,8.716,0,12.04l96.329,96.33c1.662,1.662,3.842,2.494,6.02,2.494c2.179,0,4.358-0.831,6.02-2.494  l279.356-279.356c1.597-1.596,2.494-3.762,2.494-6.02C438.191,174.124,437.295,171.958,435.697,170.362z" fill="#cdd4d5"/><path d="M249.46,356.598l-96.33-96.33c-3.325-3.325-8.716-3.325-12.041,0l-93.118,93.119  c-3.325,3.325-3.325,8.716,0,12.04l96.329,96.33c1.662,1.662,3.842,2.494,6.02,2.494c2.179,0,4.358-0.831,6.02-2.494l93.118-93.118  C252.785,365.315,252.785,359.923,249.46,356.598z" fill="#687f82"/><path d="M342.579,263.48l-96.33-96.33c-1.596-1.597-3.762-2.494-6.02-2.494c-2.258,0-4.424,0.897-6.02,2.494  l-93.118,93.118c-3.325,3.325-3.325,8.716,0,12.041l96.33,96.329c1.662,1.663,3.842,2.494,6.02,2.494  c2.179,0,4.358-0.831,6.02-2.494l93.118-93.118c1.597-1.596,2.494-3.762,2.494-6.02C345.072,267.242,344.175,265.077,342.579,263.48  z" fill="#9baaab"/><path d="M160.639,0H24.408c-4.702,0-8.514,3.812-8.514,8.514v395.069c0,4.702,3.812,8.514,8.514,8.514  h136.231c4.702,0,8.514-3.812,8.514-8.514V8.514C169.153,3.812,165.341,0,160.639,0z" fill="#ff8c29"/><path d="M160.639,263.379H24.408c-4.702,0-8.514,3.812-8.514,8.514v131.69c0,4.702,3.812,8.514,8.514,8.514  h136.231c4.702,0,8.514-3.812,8.514-8.514v-131.69C169.153,267.191,165.341,263.379,160.639,263.379z" fill="#f0353d"/><path d="M160.639,131.69H24.408c-4.702,0-8.514,3.812-8.514,8.514v131.69c0,4.702,3.812,8.514,8.514,8.514  h136.231c4.702,0,8.514-3.812,8.514-8.514v-131.69C169.153,135.502,165.341,131.69,160.639,131.69z" fill="#fd6a33"/><path d="M97.064,322.412c-52.269,0-94.794,42.524-94.794,94.794S44.795,512,97.064,512  s94.794-42.524,94.794-94.794S149.334,322.412,97.064,322.412z" fill="#ffd1a9"/><path d="M2.271,417.206C2.271,469.476,44.795,512,97.064,512V322.412  C44.795,322.412,2.271,364.937,2.271,417.206z" fill="#ff8c29"/><path d="M97.064,358.741c-32.238,0-58.466,26.228-58.466,58.466s26.228,58.466,58.466,58.466  s58.466-26.228,58.466-58.466S129.302,358.741,97.064,358.741z" fill="#687f82"/><path d="M97.064,358.741c-32.238,0-58.466,26.228-58.466,58.466s26.228,58.466,58.466,58.466V358.741z" fill="#365558"/><path d="M122.04,425.721c-4.702,0-8.514-3.812-8.514-8.514c0-9.076-7.385-16.461-16.461-16.461  c-4.702,0-8.514-3.812-8.514-8.514c0-4.702,3.812-8.514,8.514-8.514c18.466,0,33.49,15.024,33.49,33.49  C130.554,421.908,126.742,425.721,122.04,425.721z" fill="#ffffff"/></g><g transform="matrix(0.08757313340902328 0 0 0.08757313340902328 196.91543262902258 66.92770272493362)"><path d="M41.493,281.6l45.686-79.951c4.726-8.271,15.36-11.028,23.631-6.302l337.132,196.529  c8.271,4.726,11.028,15.36,6.302,23.631l-45.686,79.951c-4.726,8.271-15.36,11.028-23.631,6.302L47.794,305.231  C39.523,300.505,36.767,289.871,41.493,281.6z" fill="#bf392b"/><path d="M87.573,203.225l-0.788-0.788l-9.058,16.148l258.757,230.794  C336.483,449.378,87.573,203.225,87.573,203.225z" fill="#ac3327"/><path d="M408.557,495.458l45.686-79.951c4.726-8.271,1.969-18.905-6.302-23.631L341.21,329.649  l-66.56,107.914l110.277,64.197C393.197,506.486,403.831,503.729,408.557,495.458z" fill="#d6d6d6"/><path d="M293.554,406.843l-1.969,2.757l44.505,39.778L293.554,406.843z" fill="#cacaca"/><path d="M87.573,179.2l64.591-64.197c6.695-6.695,17.723-6.695,24.418,0l274.905,272.148  c6.695,6.695,6.695,17.329,0,24.025l-64.591,64.197c-6.695,6.695-17.723,6.695-24.418,0L87.573,203.225  C80.877,196.529,80.877,185.895,87.573,179.2z" fill="#e2574c"/><path d="M147.831,119.335l-14.966,14.572l173.292,259.938C306.157,393.846,147.831,119.335,147.831,119.335z" fill="#cb4e44"/><path d="M451.486,411.175c6.695-6.695,6.695-17.329,0-24.025l-93.342-92.16l-89.797,87.04l94.129,93.342  c6.695,6.695,17.723,6.695,24.418,0C386.896,475.372,451.486,411.175,451.486,411.175z" fill="#e0e0e0"/><path d="M154.133,95.705l79.951-46.08c8.271-4.726,18.905-1.969,23.631,6.302L453.85,396.209  c4.726,8.271,1.969,18.905-6.302,23.631l-79.951,46.08c-8.271,4.726-18.905,1.969-23.631-6.302L147.831,119.335  C143.105,111.065,145.862,100.431,154.133,95.705z" fill="#d07c40"/><path d="M288.04,362.732l-1.575,1.575l19.692,29.538L288.04,362.732z" fill="#d1d1d1"/><path d="M367.991,466.314l79.951-46.08c8.271-4.726,11.028-15.36,6.302-23.631l-68.529-118.942  l-108.308,66.954l66.56,115.397C349.087,468.283,359.72,471.04,367.991,466.314z" fill="#ebebeb"/><path d="M240.779,56.714c-0.788-3.151-0.788-6.302,0-9.452c-2.363,0.394-4.332,1.182-6.695,2.363  l-16.148,9.452L329,382.031L240.779,56.714z M367.203,439.532h0.788v-0.394L367.203,439.532z" fill="#bb6f39"/><path d="M367.203,439.532h0.788v-0.394L367.203,439.532z M312.853,322.56l-3.545,2.363L329,382.031  L312.853,322.56z" fill="#dbdbdb"/><path d="M252.594,35.84l89.009-23.631c9.058-2.363,18.511,2.757,21.268,11.815L464.09,395.815  c2.363,9.058-3.151,18.511-12.209,20.874l-89.009,23.631c-9.058,2.363-18.511-2.757-21.268-11.815L240.779,56.714  C238.022,47.655,243.536,38.203,252.594,35.84z" fill="#f4b459"/><path d="M362.871,0h81.526c11.422,0,20.48,9.058,20.48,20.48v384.394c0,11.422-9.058,20.48-20.48,20.48  h-81.526c-11.422,0-20.48-9.058-20.48-20.48V20.48C342.391,9.058,351.45,0,362.871,0z" fill="#efc75e"/><path d="M308.52,306.806l33.083,121.698c2.363,9.058,11.815,14.572,21.268,11.815l89.009-23.631  c9.059-2.363,14.572-11.815,12.209-20.874l-33.083-120.123L308.52,306.806z" fill="#e6e6e6"/><path d="M342.391,20.48c0-3.151,0.788-5.908,1.969-8.271c-0.788,0-1.969,0-2.757,0.394l-20.874,5.514  l21.662,313.895V20.48z" fill="#dba250"/><path d="M342.391,275.298v129.575c0,11.422,9.058,20.48,20.48,20.48h81.526c11.422,0,20.48-9.058,20.48-20.48  V275.298H342.391z" fill="#efefef"/><path d="M342.391,298.142l-2.363,0.788l2.363,33.083V298.142z" fill="#dddddd"/><path d="M362.083,295.385v19.692h66.954v-19.692H362.083z M362.083,397.785h27.569V385.97h-27.569V397.785z   M362.083,370.215h27.569V358.4h-27.569V370.215z M362.083,342.646h27.569v-11.815h-27.569V342.646z M431.007,378.092  c5.514,0,9.846,4.332,9.846,9.846s-4.332,9.846-9.846,9.846s-9.846-4.332-9.846-9.846  C421.16,382.425,425.493,378.092,431.007,378.092z" fill="#bfbfbf"/></g><g transform="matrix(0.054653003391480215 0.037394159748915544 -0.037394159748915544 0.054653003391480215 231.58179668196792 175.43590885361732)" id="L1_81"><path d="M132.777,512c-4.161,0-7.779-3.084-8.337-7.321c-0.607-4.611,2.638-8.841,7.248-9.448  c10.856-1.429,21.765-3.355,32.425-5.72c4.539-1.007,9.038,1.856,10.045,6.396c1.008,4.539-1.856,9.037-6.396,10.045  c-11.137,2.472-22.534,4.483-33.875,5.976C133.514,511.976,133.143,512,132.777,512z M198.446,497.422  c-3.576,0-6.891-2.294-8.026-5.884c-1.401-4.435,1.055-9.166,5.491-10.567c10.418-3.295,20.823-7.094,30.925-11.296  c4.293-1.785,9.222,0.247,11.008,4.541c1.786,4.294-0.248,9.222-4.541,11.008c-10.555,4.39-21.428,8.361-32.315,11.803  C200.143,497.295,199.287,497.422,198.446,497.422z M260.56,471.598c-3.034,0-5.965-1.645-7.468-4.52  c-2.154-4.12-0.56-9.208,3.56-11.364c9.687-5.065,19.271-10.621,28.487-16.515c3.918-2.505,9.125-1.361,11.63,2.556  c2.505,3.918,1.361,9.124-2.556,11.63c-9.626,6.157-19.639,11.961-29.756,17.252C263.21,471.289,261.874,471.598,260.56,471.598z   M317.225,435.359c-2.525,0-5.021-1.129-6.679-3.285c-2.836-3.685-2.148-8.972,1.537-11.809  c8.664-6.668,17.144-13.802,25.204-21.201c3.427-3.145,8.753-2.918,11.899,0.509c3.145,3.425,2.917,8.752-0.509,11.897  c-8.418,7.728-17.275,15.177-26.322,22.141C320.823,434.79,319.017,435.359,317.225,435.359z M366.77,389.867  c-2.032,0-4.069-0.731-5.685-2.211c-3.43-3.141-3.663-8.467-0.522-11.897c7.385-8.063,14.509-16.553,21.17-25.231  c2.83-3.688,8.117-4.383,11.808-1.552c3.688,2.831,4.383,8.117,1.552,11.806c-6.957,9.064-14.397,17.93-22.111,26.351  C371.322,388.947,369.049,389.867,366.77,389.867z M407.728,336.505c-1.549,0-3.117-0.427-4.519-1.321  c-3.921-2.5-5.074-7.706-2.573-11.627c5.887-9.233,11.434-18.827,16.481-28.514c2.151-4.124,7.237-5.725,11.358-3.575  c4.125,2.149,5.726,7.235,3.577,11.358c-5.275,10.119-11.067,20.14-17.216,29.784C413.229,335.13,410.508,336.505,407.728,336.505z   M438.819,276.849c-1.074,0-2.166-0.207-3.22-0.643c-4.296-1.78-6.337-6.706-4.556-11.003c4.187-10.103,7.975-20.514,11.255-30.942  c1.396-4.437,6.12-6.9,10.56-5.504c4.436,1.396,6.9,6.124,5.504,10.559c-3.43,10.897-7.387,21.775-11.763,32.334  C445.258,274.892,442.122,276.849,438.819,276.849z M459.027,212.686c-0.601,0-1.21-0.065-1.822-0.2  c-4.541-1.003-7.411-5.496-6.408-10.037c2.353-10.66,4.263-21.571,5.679-32.432c0.602-4.611,4.827-7.86,9.439-7.261  c4.611,0.602,7.862,4.827,7.262,9.439c-1.479,11.345-3.476,22.745-5.932,33.883C466.375,210.007,462.891,212.686,459.027,212.686z" fill="#687f82"/><path d="M87.593,510.835c-4.651,0-8.42-3.77-8.42-8.42v-53.89c0-4.65,3.769-8.42,8.42-8.42  s8.42,3.77,8.42,8.42v53.89C96.013,507.065,92.244,510.835,87.593,510.835z" fill="#365558"/><path d="M105.556,157.18H69.63c-4.651,0-8.42,3.77-8.42,8.42v282.924c0,4.65,3.769,8.42,8.42,8.42h35.927  c4.651,0,8.42-3.77,8.42-8.42V165.6C113.977,160.95,110.208,157.18,105.556,157.18z" fill="#cdd4d5"/><path d="M105.556,0H69.63c-4.651,0-8.42,3.77-8.42,8.42v80.835c0,4.65,3.769,8.42,8.42,8.42h35.927  c4.651,0,8.42-3.77,8.42-8.42V8.42C113.977,3.77,110.208,0,105.556,0z" fill="#687f82"/><path d="M69.63,157.18c-4.651,0-8.42,3.77-8.42,8.42v282.924c0,4.65,3.769,8.42,8.42,8.42h17.963V157.18  H69.63z" fill="#9baaab"/><path d="M69.63,0c-4.651,0-8.42,3.77-8.42,8.42v80.835c0,4.65,3.769,8.42,8.42,8.42h17.963V0H69.63z" fill="#365558"/><path d="M487.459,118.177l-53.89-35.927c-1.383-0.922-3.009-1.415-4.671-1.415H119.029  c-4.651,0-8.42,3.77-8.42,8.42v71.854c0,4.65,3.769,8.42,8.42,8.42h309.869c1.662,0,3.288-0.493,4.671-1.415l53.89-35.927  c2.343-1.562,3.75-4.19,3.75-7.006C491.208,122.367,489.802,119.737,487.459,118.177z" fill="#ff8c29"/><path d="M110.609,161.109c0,4.65,3.769,8.42,8.42,8.42h309.869c1.662,0,3.288-0.493,4.671-1.415l53.89-35.927  c2.343-1.562,3.75-4.19,3.75-7.006h-380.6L110.609,161.109L110.609,161.109z" fill="#fd6a33"/><path d="M428.898,133.603H119.029c-4.651,0-8.42-3.77-8.42-8.42s3.769-8.42,8.42-8.42h309.869  c4.651,0,8.42,3.77,8.42,8.42S433.549,133.603,428.898,133.603z" fill="#f0353d"/><path d="M487.459,118.177l-53.89-35.927c-1.409-0.94-3.037-1.397-4.671-1.397v88.676  c1.632,0,3.261-0.475,4.671-1.415l53.89-35.927c2.343-1.562,3.75-4.19,3.75-7.006C491.208,122.367,489.802,119.737,487.459,118.177z  " fill="#ffd1a9"/><path d="M487.459,118.177l-18.143-12.096v38.203l18.143-12.096c2.343-1.562,3.75-4.19,3.75-7.006  S489.802,119.737,487.459,118.177z" fill="#365558"/><path d="M87.593,58.381c-36.835,0-66.801,29.966-66.801,66.801s29.966,66.801,66.801,66.801  s66.801-29.966,66.801-66.801S124.428,58.381,87.593,58.381z" fill="#4acfd9"/><path d="M87.593,58.381c-36.835,0-66.801,29.966-66.801,66.801s29.966,66.801,66.801,66.801V58.381z" fill="#0295aa"/><path d="M87.593,160.548c-4.651,0-8.42-3.77-8.42-8.42c0-4.65,3.769-8.42,8.42-8.42  c8.976,0,16.279-7.303,16.279-16.279s-7.303-16.279-16.279-16.279c-4.651,0-8.42-3.77-8.42-8.42s3.769-8.42,8.42-8.42  c18.263,0,33.12,14.858,33.12,33.12S105.856,160.548,87.593,160.548z" fill="#ffffff"/></g><g transform="matrix(0.08299645781517029 0 0 0.08299645781517029 224.7529067993164 -3.2470932006835938)" id="L1_84"><path d="M256,0C154.542,0,72,82.542,72,184v110.933c0,14.41,11.724,26.133,26.133,26.133  s26.133-11.724,26.133-26.133V184c0-72.638,59.095-131.733,131.733-131.733S387.733,111.362,387.733,184v110.933  c0,14.41,11.723,26.133,26.133,26.133S440,309.343,440,294.933V184C440,82.542,357.458,0,256,0z" fill="#4acfd9"/><path d="M72,184v110.933c0,14.41,11.724,26.133,26.133,26.133s26.133-11.724,26.133-26.133V184  c0-72.638,59.095-131.733,131.733-131.733V0C154.542,0,72,82.542,72,184z" fill="#0295aa"/><path d="M98.133,295.467c-53.817,0-97.6,43.783-97.6,97.6s43.783,97.6,97.6,97.6c4.418,0,8-3.582,8-8v-179.2  C106.133,299.049,102.551,295.467,98.133,295.467z" fill="#ff8c29"/><path d="M136.533,274.133H55.467c-4.418,0-8,3.582-8,8V504c0,4.418,3.582,8,8,8h81.067c4.418,0,8-3.582,8-8  V282.133C144.533,277.715,140.951,274.133,136.533,274.133z" fill="#cdd4d5"/><path d="M413.867,295.467c-4.419,0-8,3.582-8,8v179.2c0,4.418,3.581,8,8,8c53.817,0,97.6-43.783,97.6-97.6  S467.683,295.467,413.867,295.467z" fill="#ff8c29"/><g><path d="M481.614,409.601c-0.332,0-0.667-0.021-1.004-0.063c-4.384-0.549-7.492-4.548-6.945-8.932   c0.311-2.482,0.469-5.019,0.469-7.539c0-6.437-1.012-12.772-3.01-18.828c-1.383-4.196,0.896-8.719,5.091-10.103   c4.201-1.385,8.72,0.896,10.105,5.091c2.531,7.676,3.814,15.696,3.814,23.839c0,3.183-0.198,6.388-0.592,9.527   C489.035,406.641,485.588,409.601,481.614,409.601z" fill="#ffffff"/><path d="M30.387,409.601c-3.975,0-7.421-2.959-7.929-7.006c-0.394-3.138-0.593-6.343-0.593-9.529   c0-8.141,1.283-16.161,3.815-23.839c1.383-4.196,5.907-6.477,10.102-5.092c4.195,1.383,6.476,5.907,5.092,10.102   c-1.998,6.058-3.01,12.393-3.01,18.828c0,2.522,0.158,5.058,0.468,7.538c0.549,4.384-2.559,8.383-6.943,8.933   C31.055,409.58,30.719,409.601,30.387,409.601z" fill="#ffffff"/></g><path d="M456.533,274.133h-81.067c-4.419,0-8,3.582-8,8V504c0,4.418,3.581,8,8,8h81.067c4.419,0,8-3.582,8-8  V282.133C464.533,277.715,460.953,274.133,456.533,274.133z" fill="#cdd4d5"/><g><path d="M55.467,274.133c-4.418,0-8,3.582-8,8V504c0,4.418,3.582,8,8,8h17.067V274.133H55.467z" fill="#9baaab"/><path d="M136.533,274.133h-12.8V512h12.8c4.418,0,8-3.582,8-8V282.133   C144.533,277.715,140.951,274.133,136.533,274.133z" fill="#9baaab"/><path d="M375.467,274.133c-4.419,0-8,3.582-8,8V504c0,4.418,3.581,8,8,8h12.8V274.133H375.467z" fill="#9baaab"/><path d="M456.533,274.133h-17.067V512h17.067c4.419,0,8-3.582,8-8V282.133   C464.533,277.715,460.953,274.133,456.533,274.133z" fill="#9baaab"/></g></g><g transform="matrix(0.07195614278316498 0 0 0.07195614278316498 326.5634552948177 94.56347471654408)" id="L1_85"><g><path d="M437.227,319.927c-4.468,0-8.623-2.827-10.106-7.295c-1.875-5.593,1.155-11.638,6.732-13.497   l63.985-21.323c5.593-1.859,11.638,1.156,13.497,6.748c1.858,5.577-1.156,11.622-6.749,13.481l-63.985,21.323   C439.492,319.74,438.352,319.927,437.227,319.927z" fill="#656d78"/><path d="M437.227,394.566c-4.468,0-8.623-2.827-10.106-7.295c-1.875-5.576,1.155-11.622,6.732-13.481   l63.985-21.323c5.593-1.874,11.638,1.156,13.497,6.733c1.858,5.592-1.156,11.638-6.749,13.497l-63.985,21.323   C439.492,394.395,438.352,394.566,437.227,394.566z" fill="#656d78"/><path d="M437.227,245.273c-4.468,0-8.623-2.828-10.106-7.295c-1.875-5.592,1.155-11.622,6.732-13.481   l63.985-21.339c5.593-1.859,11.638,1.156,13.497,6.749c1.858,5.592-1.156,11.622-6.749,13.481l-63.985,21.339   C439.492,245.101,438.352,245.273,437.227,245.273z" fill="#656d78"/></g><g><path d="M362.588,476.329v24.885c0,5.89,4.766,10.654,10.654,10.654h42.662   c5.889,0,10.67-4.765,10.67-10.654v-24.885H362.588z" fill="#434a54"/><path d="M42.662,501.213L42.662,501.213c0,5.89,4.772,10.67,10.662,10.67h42.654   c5.889,0,10.669-4.78,10.669-10.67l0,0v-24.885H42.662V501.213z" fill="#434a54"/></g><rect x="21px" y="106px" width="426px" height="383px" fill="#e6e9ed"/><path d="M106.647,0.001C47.746,0.001,0,47.74,0,106.632v42.662h469.221V0.001H106.647z" fill="#656d78"/><rect x="21px" y="298px" width="426px" height="21px" fill="#ccd1d9"/><path d="M8.888,63.986H469.22V42.647H21.331C16.394,49.209,12.215,56.363,8.888,63.986z" fill="#434a54"/><path d="M426.574,106.632c0,5.89-4.781,10.67-10.67,10.67s-10.67-4.78-10.67-10.67  c0-5.889,4.781-10.653,10.67-10.653S426.574,100.743,426.574,106.632z" fill="#ffce54"/><path d="M383.912,106.632c0,5.89-4.781,10.67-10.67,10.67s-10.654-4.78-10.654-10.67  c0-5.889,4.766-10.653,10.654-10.653S383.912,100.743,383.912,106.632z" fill="#ed5564"/><path d="M341.25,106.632c0,5.89-4.765,10.67-10.654,10.67c-5.889,0-10.67-4.78-10.67-10.67  c0-5.889,4.781-10.653,10.67-10.653C336.485,95.979,341.25,100.743,341.25,106.632z" fill="#a0d468"/><g><path d="M201.922,170.618h63.986c5.889,0,10.653-4.765,10.653-10.653v-10.67H191.26v10.67   C191.26,165.853,196.033,170.618,201.922,170.618z" fill="#434a54"/><path d="M266.61,319.927h-63.985h-10.669v10.653c0,5.89,4.78,10.67,10.669,10.67h63.985   c5.89,0,10.653-4.78,10.653-10.67v-10.653H266.61z" fill="#434a54"/></g></g></defs><g fi:class="KUsePattern" opacity="0.5"><pattern id="pattern_L1_78" width="350" height="350" patternUnits="userSpaceOnUse"><use xlink:href="#L1_78" x="-350" y="-350"/><use xlink:href="#L1_78" x="0" y="-350"/><use xlink:href="#L1_78" x="350" y="-350"/><use xlink:href="#L1_78" x="-350" y="0"/><use xlink:href="#L1_78" x="0" y="0"/><use xlink:href="#L1_78" x="350" y="0"/><use xlink:href="#L1_78" x="-350" y="350"/><use xlink:href="#L1_78" x="0" y="350"/><use xlink:href="#L1_78" x="350" y="350"/></pattern><rect x="0" y="0" width="100%" height="100%" fill="url(#pattern_L1_78)"/></g><g fi:class="KUsePattern" opacity="0.5"><pattern id="pattern_L1_79" width="350" height="350" patternUnits="userSpaceOnUse"><use xlink:href="#L1_79" x="-350" y="-350"/><use xlink:href="#L1_79" x="0" y="-350"/><use xlink:href="#L1_79" x="350" y="-350"/><use xlink:href="#L1_79" x="-350" y="0"/><use xlink:href="#L1_79" x="0" y="0"/><use xlink:href="#L1_79" x="350" y="0"/><use xlink:href="#L1_79" x="-350" y="350"/><use xlink:href="#L1_79" x="0" y="350"/><use xlink:href="#L1_79" x="350" y="350"/></pattern><rect x="0" y="0" width="100%" height="100%" fill="url(#pattern_L1_79)"/></g><g fi:class="KUsePattern" opacity="0.5"><pattern id="pattern_L1_80" width="350" height="350" patternUnits="userSpaceOnUse"><use xlink:href="#L1_80" x="-350" y="-350"/><use xlink:href="#L1_80" x="0" y="-350"/><use xlink:href="#L1_80" x="350" y="-350"/><use xlink:href="#L1_80" x="-350" y="0"/><use xlink:href="#L1_80" x="0" y="0"/><use xlink:href="#L1_80" x="350" y="0"/><use xlink:href="#L1_80" x="-350" y="350"/><use xlink:href="#L1_80" x="0" y="350"/><use xlink:href="#L1_80" x="350" y="350"/></pattern><rect x="0" y="0" width="100%" height="100%" fill="url(#pattern_L1_80)"/></g><g fi:class="KUsePattern" transform="matrix(1 0 0 1 20 20)" opacity="0.5"><pattern id="pattern_UNKNOWN" width="350" height="350" patternUnits="userSpaceOnUse"><use xlink:href="#UNKNOWN" x="-350" y="-350"/><use xlink:href="#UNKNOWN" x="0" y="-350"/><use xlink:href="#UNKNOWN" x="350" y="-350"/><use xlink:href="#UNKNOWN" x="-350" y="0"/><use xlink:href="#UNKNOWN" x="0" y="0"/><use xlink:href="#UNKNOWN" x="350" y="0"/><use xlink:href="#UNKNOWN" x="-350" y="350"/><use xlink:href="#UNKNOWN" x="0" y="350"/><use xlink:href="#UNKNOWN" x="350" y="350"/></pattern><rect x="0" y="0" width="100%" height="100%" fill="url(#pattern_UNKNOWN)"/></g><g fi:class="KUsePattern" opacity="0.51"><pattern id="pattern_L1_81" width="350" height="350" patternUnits="userSpaceOnUse"><use xlink:href="#L1_81" x="-350" y="-350"/><use xlink:href="#L1_81" x="0" y="-350"/><use xlink:href="#L1_81" x="350" y="-350"/><use xlink:href="#L1_81" x="-350" y="0"/><use xlink:href="#L1_81" x="0" y="0"/><use xlink:href="#L1_81" x="350" y="0"/><use xlink:href="#L1_81" x="-350" y="350"/><use xlink:href="#L1_81" x="0" y="350"/><use xlink:href="#L1_81" x="350" y="350"/></pattern><rect x="0" y="0" width="100%" height="100%" fill="url(#pattern_L1_81)"/></g><g fi:class="KUsePattern" opacity="0.48"><pattern id="pattern_L1_84" width="350" height="350" patternUnits="userSpaceOnUse"><use xlink:href="#L1_84" x="-350" y="-350"/><use xlink:href="#L1_84" x="0" y="-350"/><use xlink:href="#L1_84" x="350" y="-350"/><use xlink:href="#L1_84" x="-350" y="0"/><use xlink:href="#L1_84" x="0" y="0"/><use xlink:href="#L1_84" x="350" y="0"/><use xlink:href="#L1_84" x="-350" y="350"/><use xlink:href="#L1_84" x="0" y="350"/><use xlink:href="#L1_84" x="350" y="350"/></pattern><rect x="0" y="0" width="100%" height="100%" fill="url(#pattern_L1_84)"/></g><g fi:class="KUsePattern" opacity="0.46"><pattern id="pattern_L1_85" width="350" height="350" patternUnits="userSpaceOnUse"><use xlink:href="#L1_85" x="-350" y="-350"/><use xlink:href="#L1_85" x="0" y="-350"/><use xlink:href="#L1_85" x="350" y="-350"/><use xlink:href="#L1_85" x="-350" y="0"/><use xlink:href="#L1_85" x="0" y="0"/><use xlink:href="#L1_85" x="350" y="0"/><use xlink:href="#L1_85" x="-350" y="350"/><use xlink:href="#L1_85" x="0" y="350"/><use xlink:href="#L1_85" x="350" y="350"/></pattern><rect x="0" y="0" width="100%" height="100%" fill="url(#pattern_L1_85)"/></g></svg>