<?xml version="1.0" encoding="iso-8859-1"?>
<!-- Generator: Adobe Illustrator 19.0.0, SVG Export Plug-In . SVG Version: 6.00 Build 0)  -->
<svg version="1.1" id="Layer_1" xmlns="http://www.w3.org/2000/svg" xmlns:xlink="http://www.w3.org/1999/xlink" x="0px" y="0px"
	 viewBox="0 0 392.598 392.598" style="enable-background:new 0 0 392.598 392.598;" xml:space="preserve">
<path style="fill:#FFFFFF;" d="M95.933,358.012c0,7.047,5.689,12.8,12.8,12.8h175.515c7.046,0,12.8-5.689,12.8-12.8v-199.24H95.933
	V358.012z"/>
<rect x="117.718" y="180.622" style="fill:#FFC10D;" width="157.479" height="168.404"/>
<rect x="128.062" y="21.85" style="fill:#56ACE0;" width="136.857" height="115.135"/>
<g>
	<path style="fill:#194F82;" d="M228.393,51.394c-6.012,0-10.925,4.848-10.925,10.925v28.444c0,6.012,4.848,10.925,10.925,10.925
		s10.925-4.848,10.925-10.925V62.319C239.254,56.242,234.405,51.394,228.393,51.394z"/>
	<path style="fill:#194F82;" d="M164.522,51.394c-6.012,0-10.925,4.848-10.925,10.925v28.444c0,6.012,4.848,10.925,10.925,10.925
		c6.012,0,10.925-4.848,10.925-10.925V62.319C175.448,56.242,170.599,51.394,164.522,51.394z"/>
	<path style="fill:#194F82;" d="M307.908,136.986H286.64V10.925C286.64,4.913,281.791,0,275.714,0H117.072
		c-6.012,0-10.925,4.848-10.925,10.925v126.061H84.878c-6.012,0-10.925,4.848-10.925,10.925v210.101
		c0,19.071,15.515,34.586,34.586,34.586h175.515c19.071,0,34.586-15.515,34.586-34.586V147.911
		C318.834,141.834,313.92,136.986,307.908,136.986z M128.062,21.85h136.857v115.135H128.062V21.85z M296.983,358.012
		c0,7.047-5.689,12.8-12.8,12.8H108.733c-7.046,0-12.8-5.689-12.8-12.8v-56.048h12.024c6.012,0,10.925-4.848,10.925-10.925
		c0-6.012-4.848-10.925-10.925-10.925H95.933v-21.721h27.281c6.012,0,10.925-4.848,10.925-10.925
		c0-6.012-4.848-10.925-10.925-10.925H95.933v-77.77h201.115v199.24H296.983z"/>
</g>
<g>
</g>
<g>
</g>
<g>
</g>
<g>
</g>
<g>
</g>
<g>
</g>
<g>
</g>
<g>
</g>
<g>
</g>
<g>
</g>
<g>
</g>
<g>
</g>
<g>
</g>
<g>
</g>
<g>
</g>
</svg>
