<?xml version="1.0" encoding="iso-8859-1"?>
<!-- Generator: Adobe Illustrator 19.0.0, SVG Export Plug-In . SVG Version: 6.00 Build 0)  -->
<svg version="1.1" id="Layer_1" xmlns="http://www.w3.org/2000/svg" xmlns:xlink="http://www.w3.org/1999/xlink" x="0px" y="0px"
	 viewBox="0 0 392.598 392.598" style="enable-background:new 0 0 392.598 392.598;" xml:space="preserve">
<path style="fill:#56ACE0;" d="M350.707,347.572c11.055,0,20.04-8.986,20.04-20.04V41.794c0-11.055-8.986-20.04-20.04-20.04H41.826
	c-11.055,0-20.04,8.986-20.04,20.04v285.802c0,11.055,8.986,20.04,20.04,20.04h308.945v-0.065H350.707z"/>
<rect x="62.966" y="62.998" style="fill:#FFFFFF;" width="266.537" height="243.394"/>
<rect x="84.816" y="84.849" style="fill:#FFC10D;" width="222.901" height="199.758"/>
<g>
	<path style="fill:#194F82;" d="M350.707,0.032H41.826C18.812,0.032,0,18.78,0,41.859v285.802c0,22.174,17.325,40.275,39.111,41.632
		v12.347c0,6.012,4.848,10.925,10.925,10.925s10.925-4.849,10.925-10.925v-12.283h270.675v12.218
		c0,6.012,4.848,10.925,10.925,10.925c6.012,0,10.925-4.848,10.925-10.925v-12.347c21.786-1.422,39.111-19.523,39.111-41.632V41.859
		C392.533,18.78,373.786,0.032,350.707,0.032z M76.089,92.929H62.966V62.998h266.537v243.394H62.966v-29.931h13.123
		c6.012,0,10.925-4.848,10.925-10.925c0-6.012-4.848-10.925-10.925-10.925H62.966V114.78h13.123c6.012,0,10.925-4.848,10.925-10.925
		C87.014,97.778,82.166,92.929,76.089,92.929z M41.18,254.739H21.786V114.78H41.18V254.739z M370.747,327.661
		c0,11.055-8.986,20.04-20.04,20.04H41.826c-11.055,0-20.04-8.986-20.04-20.04v-51.135H41.18v40.792
		c0,6.012,4.848,10.925,10.925,10.925h288.323c6.012,0,10.925-4.848,10.925-10.925V52.137c0-6.012-4.848-10.925-10.925-10.925
		H52.105c-6.012,0-10.925,4.848-10.925,10.925v40.792H21.786V41.859c0-11.055,8.986-20.04,20.04-20.04h308.945
		c11.055,0,20.04,8.986,20.04,20.04v285.802H370.747z"/>
	<path style="fill:#194F82;" d="M175.838,195.588h16.356c4.073,17.067,17.519,30.448,34.521,34.521v16.356
		c0,6.012,4.848,10.925,10.925,10.925c6.012,0,10.925-4.848,10.925-10.925v-16.356c17.067-4.073,30.449-17.519,34.521-34.521h16.356
		c6.012,0,10.925-4.848,10.925-10.925c0-6.012-4.848-10.925-10.925-10.925h-16.356c-4.073-17.067-17.519-30.448-34.521-34.521
		v-16.356c0-6.012-4.848-10.925-10.925-10.925c-6.012,0-10.925,4.848-10.925,10.925v16.356
		c-17.067,4.073-30.448,17.519-34.521,34.521h-16.356c-6.012,0-10.925,4.848-10.925,10.925
		C164.913,190.739,169.826,195.588,175.838,195.588z M237.705,159.774c13.77,0,24.954,11.184,24.954,24.954
		c0,13.77-11.184,24.954-24.954,24.954c-13.77,0-24.954-11.184-24.954-24.954C212.752,170.958,223.935,159.774,237.705,159.774z"/>
</g>
<path style="fill:#FFFFFF;" d="M262.723,184.727c0-13.77-11.184-24.954-24.954-24.954s-24.954,11.184-24.954,24.954
	c0,13.77,11.184,24.954,24.954,24.954C251.539,209.745,262.723,198.562,262.723,184.727z"/>

</svg>
